<mxfile host="Electron" modified="2023-07-17T15:06:15.362Z" agent="Mozilla/5.0 (Windows NT 10.0; Win64; x64) AppleWebKit/537.36 (KHTML, like Gecko) draw.io/21.6.1 Chrome/112.0.5615.204 Electron/24.6.1 Safari/537.36" etag="dHjcdVgXZZgI8__aR9fP" version="21.6.1" type="device">
  <diagram name="第 1 页" id="p5tzlh6DlngdniSk4XOc">
    <mxGraphModel dx="1098" dy="828" grid="1" gridSize="10" guides="1" tooltips="1" connect="1" arrows="1" fold="1" page="1" pageScale="1" pageWidth="827" pageHeight="1169" math="0" shadow="0">
      <root>
        <mxCell id="0" />
        <mxCell id="1" parent="0" />
        <mxCell id="F9ZfYK4hnVqlx063xaw1-1" value="eureka" style="rounded=1;whiteSpace=wrap;html=1;" vertex="1" parent="1">
          <mxGeometry x="60" y="100" width="690" height="390" as="geometry" />
        </mxCell>
        <mxCell id="F9ZfYK4hnVqlx063xaw1-13" style="edgeStyle=orthogonalEdgeStyle;rounded=0;orthogonalLoop=1;jettySize=auto;html=1;entryX=0;entryY=0.5;entryDx=0;entryDy=0;" edge="1" parent="1" source="F9ZfYK4hnVqlx063xaw1-2" target="F9ZfYK4hnVqlx063xaw1-12">
          <mxGeometry relative="1" as="geometry" />
        </mxCell>
        <mxCell id="F9ZfYK4hnVqlx063xaw1-14" value="定时更新注册表" style="edgeLabel;html=1;align=center;verticalAlign=middle;resizable=0;points=[];" vertex="1" connectable="0" parent="F9ZfYK4hnVqlx063xaw1-13">
          <mxGeometry x="-0.2" y="-2" relative="1" as="geometry">
            <mxPoint as="offset" />
          </mxGeometry>
        </mxCell>
        <mxCell id="F9ZfYK4hnVqlx063xaw1-2" value="read only cache" style="rounded=1;whiteSpace=wrap;html=1;" vertex="1" parent="1">
          <mxGeometry x="130" y="420" width="120" height="60" as="geometry" />
        </mxCell>
        <mxCell id="F9ZfYK4hnVqlx063xaw1-4" style="edgeStyle=orthogonalEdgeStyle;rounded=0;orthogonalLoop=1;jettySize=auto;html=1;" edge="1" parent="1" source="F9ZfYK4hnVqlx063xaw1-3" target="F9ZfYK4hnVqlx063xaw1-2">
          <mxGeometry relative="1" as="geometry" />
        </mxCell>
        <mxCell id="F9ZfYK4hnVqlx063xaw1-5" value="同步线程根据一定的频率同步&lt;br&gt;发现两边不一致时，清除readonlycache" style="edgeLabel;html=1;align=center;verticalAlign=middle;resizable=0;points=[];" vertex="1" connectable="0" parent="F9ZfYK4hnVqlx063xaw1-4">
          <mxGeometry x="0.1667" y="-4" relative="1" as="geometry">
            <mxPoint as="offset" />
          </mxGeometry>
        </mxCell>
        <mxCell id="F9ZfYK4hnVqlx063xaw1-3" value="read write cache" style="rounded=1;whiteSpace=wrap;html=1;" vertex="1" parent="1">
          <mxGeometry x="130" y="260" width="120" height="60" as="geometry" />
        </mxCell>
        <mxCell id="F9ZfYK4hnVqlx063xaw1-10" style="edgeStyle=orthogonalEdgeStyle;rounded=0;orthogonalLoop=1;jettySize=auto;html=1;" edge="1" parent="1" source="F9ZfYK4hnVqlx063xaw1-6" target="F9ZfYK4hnVqlx063xaw1-3">
          <mxGeometry relative="1" as="geometry" />
        </mxCell>
        <mxCell id="F9ZfYK4hnVqlx063xaw1-11" value="立即同步，当存在更新时&lt;br&gt;清除readwritecache" style="edgeLabel;html=1;align=center;verticalAlign=middle;resizable=0;points=[];" vertex="1" connectable="0" parent="F9ZfYK4hnVqlx063xaw1-10">
          <mxGeometry x="0.1553" y="2" relative="1" as="geometry">
            <mxPoint as="offset" />
          </mxGeometry>
        </mxCell>
        <mxCell id="F9ZfYK4hnVqlx063xaw1-6" value="注册表" style="rounded=1;whiteSpace=wrap;html=1;" vertex="1" parent="1">
          <mxGeometry x="320" y="110" width="350" height="60" as="geometry" />
        </mxCell>
        <mxCell id="F9ZfYK4hnVqlx063xaw1-8" style="edgeStyle=orthogonalEdgeStyle;rounded=0;orthogonalLoop=1;jettySize=auto;html=1;" edge="1" parent="1" source="F9ZfYK4hnVqlx063xaw1-7" target="F9ZfYK4hnVqlx063xaw1-6">
          <mxGeometry relative="1" as="geometry">
            <Array as="points">
              <mxPoint x="495" y="520" />
              <mxPoint x="495" y="520" />
            </Array>
          </mxGeometry>
        </mxCell>
        <mxCell id="F9ZfYK4hnVqlx063xaw1-9" value="服务注册" style="edgeLabel;html=1;align=center;verticalAlign=middle;resizable=0;points=[];" vertex="1" connectable="0" parent="F9ZfYK4hnVqlx063xaw1-8">
          <mxGeometry x="-0.2" relative="1" as="geometry">
            <mxPoint as="offset" />
          </mxGeometry>
        </mxCell>
        <mxCell id="F9ZfYK4hnVqlx063xaw1-15" style="edgeStyle=orthogonalEdgeStyle;rounded=0;orthogonalLoop=1;jettySize=auto;html=1;" edge="1" parent="1" source="F9ZfYK4hnVqlx063xaw1-7">
          <mxGeometry relative="1" as="geometry">
            <mxPoint x="650" y="500" as="targetPoint" />
          </mxGeometry>
        </mxCell>
        <mxCell id="F9ZfYK4hnVqlx063xaw1-16" value="定时发送心跳" style="edgeLabel;html=1;align=center;verticalAlign=middle;resizable=0;points=[];" vertex="1" connectable="0" parent="F9ZfYK4hnVqlx063xaw1-15">
          <mxGeometry x="-0.1922" y="-1" relative="1" as="geometry">
            <mxPoint as="offset" />
          </mxGeometry>
        </mxCell>
        <mxCell id="F9ZfYK4hnVqlx063xaw1-7" value="微服务" style="rounded=1;whiteSpace=wrap;html=1;" vertex="1" parent="1">
          <mxGeometry x="435" y="580" width="120" height="60" as="geometry" />
        </mxCell>
        <mxCell id="F9ZfYK4hnVqlx063xaw1-12" value="微服务" style="rounded=1;whiteSpace=wrap;html=1;" vertex="1" parent="1">
          <mxGeometry x="230" y="584.5" width="120" height="60" as="geometry" />
        </mxCell>
        <mxCell id="F9ZfYK4hnVqlx063xaw1-17" style="edgeStyle=orthogonalEdgeStyle;rounded=0;orthogonalLoop=1;jettySize=auto;html=1;entryX=0.94;entryY=0.967;entryDx=0;entryDy=0;entryPerimeter=0;" edge="1" parent="1" source="F9ZfYK4hnVqlx063xaw1-6" target="F9ZfYK4hnVqlx063xaw1-6">
          <mxGeometry relative="1" as="geometry">
            <mxPoint x="640" y="150" as="sourcePoint" />
            <mxPoint x="660" y="180" as="targetPoint" />
            <Array as="points">
              <mxPoint x="830" y="130" />
              <mxPoint x="830" y="180" />
              <mxPoint x="649" y="180" />
            </Array>
          </mxGeometry>
        </mxCell>
        <mxCell id="F9ZfYK4hnVqlx063xaw1-18" value="定时进行心跳检测，检测到服务&lt;br&gt;下线超过90秒时，清理掉服务" style="edgeLabel;html=1;align=center;verticalAlign=middle;resizable=0;points=[];" vertex="1" connectable="0" parent="F9ZfYK4hnVqlx063xaw1-17">
          <mxGeometry x="0.2351" y="3" relative="1" as="geometry">
            <mxPoint as="offset" />
          </mxGeometry>
        </mxCell>
        <mxCell id="F9ZfYK4hnVqlx063xaw1-19" value="Eureka1" style="rounded=1;whiteSpace=wrap;html=1;" vertex="1" parent="1">
          <mxGeometry x="195" y="820" width="120" height="60" as="geometry" />
        </mxCell>
        <mxCell id="F9ZfYK4hnVqlx063xaw1-22" style="edgeStyle=orthogonalEdgeStyle;rounded=0;orthogonalLoop=1;jettySize=auto;html=1;entryX=1;entryY=0.75;entryDx=0;entryDy=0;" edge="1" parent="1">
          <mxGeometry relative="1" as="geometry">
            <mxPoint x="435" y="857" as="sourcePoint" />
            <mxPoint x="315" y="857" as="targetPoint" />
            <Array as="points">
              <mxPoint x="395" y="857" />
              <mxPoint x="395" y="857" />
            </Array>
          </mxGeometry>
        </mxCell>
        <mxCell id="F9ZfYK4hnVqlx063xaw1-20" value="Eureka2" style="rounded=1;whiteSpace=wrap;html=1;" vertex="1" parent="1">
          <mxGeometry x="435" y="820" width="120" height="60" as="geometry" />
        </mxCell>
        <mxCell id="F9ZfYK4hnVqlx063xaw1-21" value="" style="endArrow=classic;html=1;rounded=0;entryX=0;entryY=0.5;entryDx=0;entryDy=0;" edge="1" parent="1">
          <mxGeometry width="50" height="50" relative="1" as="geometry">
            <mxPoint x="315" y="842" as="sourcePoint" />
            <mxPoint x="435" y="842" as="targetPoint" />
          </mxGeometry>
        </mxCell>
        <mxCell id="F9ZfYK4hnVqlx063xaw1-23" value="数据交换" style="text;html=1;strokeColor=none;fillColor=none;align=center;verticalAlign=middle;whiteSpace=wrap;rounded=0;" vertex="1" parent="1">
          <mxGeometry x="345" y="810" width="60" height="30" as="geometry" />
        </mxCell>
        <mxCell id="F9ZfYK4hnVqlx063xaw1-24" value="&lt;font style=&quot;font-size: 24px;&quot;&gt;集群模式：&lt;/font&gt;" style="text;html=1;strokeColor=none;fillColor=none;align=center;verticalAlign=middle;whiteSpace=wrap;rounded=0;" vertex="1" parent="1">
          <mxGeometry x="85" y="740" width="150" height="40" as="geometry" />
        </mxCell>
        <mxCell id="F9ZfYK4hnVqlx063xaw1-25" value="&lt;font style=&quot;font-size: 24px;&quot;&gt;服务注册、服务发现、服务下线&lt;/font&gt;" style="text;html=1;strokeColor=none;fillColor=none;align=center;verticalAlign=middle;whiteSpace=wrap;rounded=0;" vertex="1" parent="1">
          <mxGeometry x="20" y="30" width="380" height="30" as="geometry" />
        </mxCell>
      </root>
    </mxGraphModel>
  </diagram>
</mxfile>
